<?xml version="1.0" standalone="no"?>
<!DOCTYPE svg PUBLIC "-//W3C//DTD SVG 20010904//EN"
 "http://www.w3.org/TR/2001/REC-SVG-20010904/DTD/svg10.dtd">
<svg version="1.0" xmlns="http://www.w3.org/2000/svg"
 width="600.000000pt" height="600.000000pt" viewBox="0 0 600.000000 600.000000"
 preserveAspectRatio="xMidYMid meet">
<metadata>
Created by potrace 1.11, written by Peter Selinger 2001-2013
</metadata>
<g transform="translate(0.000000,600.000000) scale(0.100000,-0.100000)"
fill="#000000" stroke="none">
<path d="M3800 5709 c-270 -21 -584 -75 -667 -115 -63 -31 -146 -117 -232
-244 -36 -52 -81 -115 -101 -140 -20 -25 -53 -70 -72 -100 -54 -86 -40 -83
-249 -54 -139 19 -213 24 -304 21 -113 -3 -124 -5 -195 -40 -156 -75 -405
-270 -586 -459 -114 -120 -217 -280 -244 -382 -16 -58 -40 -250 -40 -318 0
-15 -19 -17 -195 -18 -179 0 -258 -7 -310 -26 -53 -19 -76 -49 -144 -187 -62
-128 -80 -154 -170 -254 -56 -62 -132 -136 -169 -164 -117 -88 -103 -104 35
-39 108 50 194 112 266 190 72 78 98 122 148 256 22 60 48 115 57 123 14 11
54 12 212 5 107 -4 258 -8 335 -10 l140 -2 37 -48 c21 -27 56 -92 79 -144 78
-177 157 -325 192 -359 38 -36 62 -35 48 2 -6 16 0 37 25 82 57 103 67 249 30
408 -12 50 -12 56 1 45 30 -25 74 -132 103 -250 32 -131 50 -163 74 -138 8 8
31 58 51 110 21 52 49 115 63 140 33 59 105 159 114 160 4 0 -1 -24 -12 -54
-35 -103 -52 -204 -48 -286 1 -43 8 -84 15 -91 19 -19 56 12 99 83 51 86 230
306 240 296 1 -2 -13 -42 -32 -90 -62 -156 -87 -284 -64 -329 15 -26 27 -24
34 7 5 18 12 24 24 20 9 -3 46 -10 81 -16 35 -6 71 -15 80 -20 9 -5 61 -26
116 -46 55 -20 193 -83 307 -140 114 -56 231 -110 260 -118 250 -73 655 -65
861 15 81 32 172 96 245 174 102 107 113 133 99 236 -8 54 -6 60 26 110 40 62
103 188 138 272 35 87 47 91 244 83 88 -4 178 -9 200 -12 100 -12 252 -38 267
-46 10 -4 44 -63 77 -131 76 -156 183 -320 248 -377 64 -57 194 -130 232 -130
38 0 49 17 19 29 -57 23 -172 139 -249 252 -43 64 -189 324 -189 338 0 23 -75
71 -147 94 -214 71 -580 92 -682 39 -47 -24 -101 -102 -141 -205 -35 -87 -89
-187 -102 -187 -5 0 -29 20 -55 44 l-47 44 52 64 c29 35 65 88 80 118 24 48
27 67 27 150 0 88 -2 100 -36 170 -20 41 -57 102 -84 135 -26 33 -52 65 -57
72 -7 8 6 20 44 39 133 67 259 183 306 283 15 31 28 58 29 60 7 10 212 -138
274 -196 100 -95 118 -135 154 -355 5 -32 10 -38 30 -38 31 0 97 85 127 162
40 105 34 288 -14 381 l-19 39 23 -7 c13 -4 48 -21 78 -37 147 -81 276 -225
294 -329 7 -40 29 -65 47 -54 6 4 20 26 30 49 24 54 26 230 3 319 -21 81 -66
172 -119 240 -40 50 -145 148 -205 190 -13 9 -22 19 -19 21 9 9 152 -16 205
-35 74 -28 162 -87 226 -153 81 -83 98 -76 98 39 0 77 -6 93 -77 218 -89 157
-198 261 -347 331 -182 86 -363 102 -561 51 -70 -19 -216 -86 -262 -121 l-33
-25 -64 55 c-103 87 -339 219 -447 250 -58 16 -98 17 -259 5z"/>
<path d="M5330 3303 c0 -20 11 -38 91 -150 70 -98 163 -185 240 -223 56 -29
119 -40 119 -21 0 5 -24 27 -52 49 -59 46 -120 113 -197 219 -42 57 -67 80
-116 108 -71 40 -85 42 -85 18z"/>
<path d="M525 3203 c-16 -8 -52 -46 -80 -85 -63 -89 -177 -204 -268 -272 -89
-66 -106 -84 -87 -96 28 -17 176 54 271 130 84 68 143 139 185 225 35 72 43
115 22 114 -7 0 -26 -7 -43 -16z"/>
<path d="M4823 2913 c-55 -101 -170 -225 -218 -237 -60 -15 -73 -48 -26 -64
37 -13 125 -7 180 13 24 8 46 13 48 11 5 -5 -66 -76 -133 -132 -43 -36 -47
-43 -35 -58 19 -23 39 -20 96 13 54 32 89 65 129 125 31 47 33 77 5 101 -18
17 -24 17 -52 6 -70 -28 -74 -26 -32 20 23 24 58 72 80 107 42 69 39 69 81
-13 41 -80 134 -166 134 -124 0 7 -15 35 -34 63 -45 69 -72 123 -85 174 -9 31
-21 48 -44 62 -18 11 -35 20 -39 20 -4 0 -29 -39 -55 -87z"/>
<path d="M1050 2949 c0 -25 -58 -125 -102 -175 -51 -59 -57 -71 -33 -80 23 -9
61 20 113 87 l46 60 20 -28 c11 -15 43 -52 72 -81 l53 -54 -72 3 c-40 2 -78 0
-84 -4 -7 -5 -13 -23 -13 -42 0 -69 92 -135 187 -135 73 0 78 22 10 55 -51 25
-104 62 -96 69 2 1 40 8 84 15 52 7 86 18 99 30 18 18 17 19 -27 50 -49 33
-88 79 -130 153 -15 25 -39 56 -53 67 -28 22 -74 28 -74 10z"/>
<path d="M5360 2879 c0 -18 96 -134 152 -184 28 -25 61 -48 75 -51 17 -5 22
-11 18 -23 -4 -9 -16 -41 -26 -71 -27 -77 -100 -223 -147 -295 -36 -56 -46
-64 -122 -99 -219 -100 -411 -110 -578 -29 -121 58 -143 18 -29 -57 l67 -45 0
-67 c0 -70 -16 -156 -50 -273 -37 -129 -21 -198 59 -252 68 -46 140 -51 249
-17 9 3 0 -10 -21 -29 -43 -40 -127 -70 -242 -87 -83 -12 -145 -28 -145 -37 0
-3 41 -44 91 -91 81 -77 196 -219 185 -229 -2 -3 -24 8 -48 23 -104 66 -253
114 -354 114 -51 0 -44 -28 19 -79 47 -38 167 -168 167 -182 0 -3 -40 15 -89
39 -67 34 -103 45 -152 49 l-64 5 -70 -52 c-109 -81 -365 -205 -570 -277 -95
-33 -248 -74 -254 -68 -2 3 4 22 13 43 44 91 35 127 -14 55 -46 -67 -154 -170
-207 -197 -85 -42 -174 -59 -283 -53 -162 9 -222 37 -360 166 -99 92 -157 98
-83 8 13 -16 23 -32 23 -37 0 -21 -226 17 -388 66 -181 55 -340 136 -551 281
-91 63 -94 64 -142 58 -47 -7 -176 -64 -229 -102 -22 -17 -22 -14 8 28 17 26
66 83 108 128 91 96 91 111 6 111 -80 0 -187 -30 -341 -97 -11 -5 -11 -2 -1
18 22 40 111 129 193 191 100 77 100 90 -4 100 -74 7 -187 43 -269 87 l-35 19
71 0 c116 0 177 43 205 147 9 32 8 57 -6 125 -28 137 -45 251 -45 311 0 55 1
57 40 83 61 40 99 113 69 131 -6 4 -20 -2 -32 -13 -36 -34 -172 -98 -235 -112
-32 -6 -81 -10 -108 -7 -95 9 -259 47 -312 73 -62 30 -94 74 -188 257 -61 119
-63 143 -18 174 51 35 117 98 146 140 l29 43 -28 -1 c-51 -2 -70 -13 -162
-100 -76 -72 -91 -91 -91 -117 0 -45 102 -275 163 -365 46 -70 59 -83 120
-113 119 -61 235 -94 324 -94 44 0 102 7 128 15 27 8 52 12 57 9 4 -3 8 -33 8
-67 0 -67 25 -181 59 -271 42 -114 23 -165 -71 -185 -68 -15 -93 -14 -173 8
-38 11 -71 18 -74 16 -9 -10 12 -58 40 -89 45 -52 192 -132 296 -162 7 -1 -16
-31 -50 -66 -78 -78 -132 -181 -122 -228 4 -17 14 -34 22 -37 8 -3 45 10 82
30 64 35 241 100 249 92 3 -2 -16 -27 -41 -55 -62 -68 -117 -169 -117 -213 0
-19 8 -45 19 -58 l19 -24 46 43 c64 59 128 98 202 122 l64 22 57 -52 c76 -68
266 -193 356 -235 184 -84 393 -129 584 -123 l112 2 58 -43 c93 -70 172 -97
313 -107 155 -12 298 29 389 111 26 23 48 36 63 34 80 -9 298 42 458 106 200
80 336 166 427 271 l48 54 58 -15 c64 -17 165 -65 215 -102 18 -14 46 -28 62
-33 33 -10 47 1 56 46 7 37 -46 128 -119 201 -28 29 -46 53 -40 53 30 0 126
-45 207 -95 118 -74 156 -72 156 9 0 62 -36 124 -127 215 -46 46 -83 85 -83
86 0 1 25 5 56 8 104 11 242 95 278 171 15 32 22 86 11 86 -3 0 -39 -12 -81
-26 -99 -35 -186 -30 -221 11 -33 37 -32 44 22 230 20 72 33 169 35 267 0 4
14 2 31 -4 58 -20 223 -5 329 31 203 69 257 116 346 298 50 101 101 285 90
326 -3 14 -34 56 -68 94 -35 38 -80 88 -101 111 -31 35 -45 43 -82 47 -28 3
-45 0 -45 -6z"/>
<path d="M2067 2866 c-99 -37 -168 -104 -219 -214 -73 -158 -107 -327 -78
-383 16 -30 26 -23 49 33 104 251 301 384 461 311 25 -11 74 -43 109 -72 36
-28 70 -50 75 -48 32 10 5 140 -46 220 -79 123 -241 194 -351 153z"/>
<path d="M3812 2849 c-132 -26 -253 -145 -292 -288 -18 -67 -7 -79 37 -41 55
49 158 93 225 98 48 4 67 0 112 -22 78 -38 157 -127 207 -234 53 -115 53 -113
64 -115 26 -5 29 209 3 308 -17 66 -67 157 -111 203 -73 76 -160 108 -245 91z"/>
<path d="M3724 2059 c-116 -34 -233 -339 -198 -521 22 -114 57 -157 145 -177
70 -16 124 3 184 63 67 69 86 122 93 264 9 207 -39 333 -141 371 -32 13 -40
13 -83 0z m99 -72 c15 -12 30 -36 33 -53 l6 -32 -53 19 c-30 10 -71 18 -91 19
-44 0 -47 10 -15 41 44 42 74 43 120 6z"/>
<path d="M2151 2019 c-85 -38 -129 -163 -119 -336 11 -183 102 -320 223 -339
56 -8 103 8 143 49 50 52 65 99 64 207 -3 180 -75 360 -165 407 -55 28 -102
32 -146 12z m110 -52 c35 -23 54 -62 25 -51 -23 9 -122 -15 -149 -37 -33 -25
-37 -24 -27 9 16 55 24 65 64 83 51 23 47 23 87 -4z"/>
<path d="M2915 1594 c-11 -2 -51 -12 -90 -20 -81 -19 -189 -70 -239 -114 -31
-28 -65 -94 -54 -106 3 -2 36 20 75 50 156 117 357 153 568 100 75 -19 215
-87 245 -119 26 -28 60 -33 60 -10 0 26 -90 108 -155 141 -107 56 -181 76
-290 80 -55 1 -109 1 -120 -2z"/>
<path d="M2940 1502 c-43 -5 -124 -34 -162 -58 -44 -28 -88 -99 -88 -143 0
-107 134 -209 285 -215 136 -6 267 64 309 166 21 50 20 83 -5 135 -22 45 -66
75 -151 102 -36 12 -139 19 -188 13z m136 -78 c19 -9 34 -22 34 -30 0 -40
-148 -64 -217 -35 -38 15 -40 22 -15 44 43 39 139 49 198 21z"/>
<path d="M3430 1239 c0 -32 34 -80 79 -114 22 -17 41 -35 41 -41 0 -20 -65
-94 -113 -128 -26 -19 -68 -43 -95 -54 -59 -26 -180 -41 -252 -33 -52 6 -55 7
-58 36 -4 46 -22 105 -32 105 -17 0 -32 -42 -26 -74 9 -51 -3 -59 -96 -64
-143 -7 -282 53 -397 171 l-55 56 29 23 c16 13 31 25 35 28 32 25 54 100 29
100 -6 0 -29 -15 -52 -34 -57 -46 -92 -62 -165 -77 -60 -13 -122 -7 -174 16
-14 5 -18 2 -18 -13 0 -50 125 -91 222 -73 30 5 54 6 56 1 6 -17 47 -69 114
-145 48 -56 87 -116 139 -217 117 -228 192 -283 374 -276 78 3 100 7 157 36
84 41 125 88 189 214 26 53 74 134 105 180 106 153 124 182 124 198 0 12 13
14 77 12 65 -2 85 1 122 20 45 23 71 51 59 64 -4 4 -27 1 -52 -5 -112 -28
-228 -2 -309 69 -52 46 -57 48 -57 19z"/>
</g>
</svg>
